
<svg version="1.1" id="Layer_1" xmlns:x="&ns_extend;" xmlns:i="&ns_ai;" xmlns:graph="&ns_graphs;"
	 xmlns="http://www.w3.org/2000/svg" xmlns:xlink="http://www.w3.org/1999/xlink" x="0px" y="0px" width="1280px" height="900px"
	 viewBox="0 0 1280 900" enable-background="new 0 0 1280 900" xml:space="preserve">

<path id="js-path" stroke-dasharray="2900" stroke-dashoffset="2900" fill="none" stroke="#2c202d" stroke-width="5" stroke-linecap="round" stroke-linejoin="round" d="M113.388,508.086c44.937-33.438,84.122-76.28,110.205-126.062
	c6.46-12.331,11.415-25.39,15.822-38.576c5.578-16.688,10.2-34.017,11.505-51.619c0.941-12.708-0.064-28.511-11.478-36.512
	c-2.518-1.765-5.155-3.097-8.055-1.783c-4.08,1.849-7.568,5.309-10.191,8.864c-6.11,8.28-9.368,18.325-11.591,28.268
	c-10.652,47.637,5.777,95.569,40.166,129.542c26.316,25.999,66.003,45.577,103.754,40.112c42.812-6.197,64.181-56.719,50.788-95.271
	c-0.953-2.744-4.648-2.142-4.911,0.665c-1.516,16.194,8.636,33.79,17.533,46.494c8.888,12.689,22.666,27.959,39.483,28.095
	c20.534,0.166,27.895-27.401,21.151-43.106c-7.828-18.229-29.497-26.733-48.025-28.333c-17.932-1.549-42.342,1.068-52.643,17.899
	c-9.077,14.83,10.376,21.708,21.471,23.595c21.08,3.583,42.88-0.851,63.031-7.042c27.689-8.509,53.686-21.795,79.655-34.416
	c17.289-8.402,50.703-29.605,49.081-29.988c-9.972-2.355-37.143,30.445-19.515,40.07c22.012,12.02,37.05-20.557,28.035-37.474
	c-1.05-1.971-3.974-1.397-4.569,0.598c-4.134,13.83,9.423,28.864,20.25,35.609c12.595,7.847,25.186-0.093,34.915-8.536
	c12.479-10.828,25.571-23.4,37.619-34.678c8.563-8.019,31.125-29.963,28.459-29.167c-14.463,4.324-33.544,21.057-41.709,33.125
	c-6.521,9.641-12.107,26.077,3.74,29.509c16.908,3.661,26.406-20.354,30.344-32.669c7.35-22.995-4.083-45.896-16.368-65.052
	c-0.579-0.895-1.163-1.785-1.755-2.671c-1.235-1.867-4.977-1.406-4.658,1.262c2.904,24.355,10.513,48.04,21.428,69.966
	c8.838,17.75,20.889,34.906,36.367,47.498c12.926,10.515,32.98,16.899,44.9,1.108c11.296-14.966,7.062-50.542,8.165-50.13
	c1.931,0.72,6.382,6.938,8.669,10.386c3.955,5.966,7.585,12.148,11.312,18.258c3.791,6.214,7.635,12.408,11.902,18.31
	c3.113,4.304,6.542,8.85,11.12,11.69c20.521,12.732,16.942-53.096,19.364-60.049c0.472-1.354,20.641,21.548,32.027,32.517
	c5.861,5.646,33.295,31.9,38.972,47.021c0.585,1.559-9.789-24.599-13.89-36.992c-2.199-6.65-3.584-14.081-1.518-20.935
	c2.611-8.663,11.889-11.908,20.154-11.117c8.567,0.82,14.957,8.202,20.152,14.349c7.146,8.452,13.246,17.979,21.996,24.924
	c6.352,5.042,15.386,8.218,22.629,3.232c7.022-4.833,13.811-13.096,18.32-19.999c9.061-13.868,19.11-28.142,34.982-32.002
	c2.701-0.657,2.841-0.252,0,0c-9.353,0.83-18.731,6.188-26.334,11.35c-6.536,4.438-16.146,12.013-14.043,21.085
	c1.002,4.321,5.358,6.792,9.004,8.562c6.272,3.045,13.421,2.924,19.844,0.486c12.513-4.75,16.679-31.584,17.617-30.669
	c2.211,2.156,14.72,57.129,17.916,86.507c2.362,21.712,1.033,47.839-16.465,63.264c-12.648,11.151-30.812,14.684-47.095,16.027
	c-19.184,1.584-38.629-0.056-57.648-2.647"/>
<g id="js-pen">
	<polygon fill="#FFFFFF" points="-2.097,11.15 -2.097,62.15 7.018,57.65 11.76,44.65 11.76,29.9 4.832,14.4 	"/>
	<g>
		<path fill="#3F2D40" d="M-4.284,0.056C-2.204,0.036-0.106,0.02,1.992,0c1.549,10.747,9.261,18.799,13.525,28.395
			c3.643,8.217,1.023,18.051-5.396,24.097c0.016,1.846,0.05,3.711,0.122,5.576c4.831,2.755,8.64,7.688,6.989,13.567
			c-2.724,14.317-0.118,28.784,0.889,43.141c2.115,23.832-0.701,47.707-2.55,71.469c-1.028,47.536-2.107,95.124-4.048,142.665
			c-0.216,3.947-0.378,7.895-0.467,11.877c-0.382,15.518-1.247,30.999-1.646,46.516c-4.734,0.041-9.45,0.084-14.167,0.127
			c-3.172-59.746-6.827-119.468-8.852-179.259c0.267-22.24-4.055-44.169-4.863-66.346c-1.44-18.549,1.425-37.029,1.744-55.539
			c0.3-6.692-2.18-13.18-1.631-19.856c0.54-3.825,4.145-5.918,6.85-8.149c0.02-1.862,0.021-3.729,0.04-5.576
			c-6.582-5.985-9.341-15.86-5.794-24.195C-13.171,18.913-5.605,10.776-4.284,0.056z M-11.193,39.499
			c0.645,3.994,3.967,6.547,6.788,9.088c0.077,2.653,0.156,5.305,0.233,7.977c0.879-0.008,2.601-0.041,3.478-0.066
			c0.897,0.011,2.691,0.011,3.588,0.003c0.012-2.688,0.023-5.362,0.071-8.016c2.455-2.301,5.448-4.462,6.296-7.913
			c2.588-7.465-3.05-14.048-6.512-20.114c-0.072,3.925-0.072,7.854-0.037,11.799c-0.933,0.01-2.76,0.06-3.676,0.087
			c-0.86-0.012-2.599-0.03-3.461-0.021c-0.052-3.893-0.123-7.783-0.211-11.674C-7.85,26.396-12.961,32.468-11.193,39.499z
			 M-10.931,66.83c-0.224,7.104,1.667,14.1,1.41,21.22c-0.285,16.179-2.778,32.269-2.005,48.494
			c0.723,24.524,5.44,48.766,5.176,73.355c0.968,19.88,0.842,39.878,3.171,59.674c0.901,36.413,3.091,72.818,5.373,109.167
			c2.284-41.337,3.239-82.754,4.267-124.156c0.275-7.48,0.924-14.983,0.284-22.456c1.37-9.178,1.001-18.463,1.097-27.7
			c-0.285-21.681,3.342-43.179,3.759-64.849c0.915-17.921-2.4-35.663-2.83-53.54C8.499,79.603,10.378,73.22,9.71,66.807
			c-1.677-1.117-3.39-2.123-5.156-3.021c-2.887-0.047-5.757-0.127-8.629-0.244C-6.414,64.564-8.754,65.519-10.931,66.83z"/>
		<path fill="#796D7A" d="M-10.931,66.83c2.176-1.312,4.517-2.266,6.855-3.289c1.213,45.163,0.937,90.377,1.557,135.546
			c-0.077,23.493,1.354,47.028-0.66,70.486c-2.329-19.796-2.203-39.794-3.171-59.674c0.264-24.59-4.454-48.831-5.176-73.355
			c-0.773-16.226,1.72-32.315,2.005-48.494C-9.264,80.93-11.155,73.934-10.931,66.83z"/>
		<path fill="#796D7A" d="M4.554,63.785c1.766,0.898,3.479,1.904,5.156,3.021c0.668,6.413-1.211,12.796-0.939,19.232
			c0.43,17.877,3.745,35.619,2.83,53.54c-0.417,21.67-4.043,43.168-3.759,64.849c-0.096,9.237,0.273,18.522-1.097,27.7
			c-1.081-8.617-1.428-17.276-1.218-25.958C5.208,158.719,3.85,111.243,4.554,63.785z"/>
		<path fill="#D9D6DA" d="M-11.193,39.499c-1.768-7.031,3.344-13.104,6.556-18.851c0.088,3.891,0.16,7.781,0.211,11.674
			c0.862-0.01,2.601,0.009,3.461,0.021c0.145,8.051,0.235,16.103,0.27,24.154c-0.877,0.025-2.599,0.059-3.478,0.066
			c-0.077-2.672-0.156-5.323-0.233-7.977C-7.226,46.046-10.549,43.493-11.193,39.499z"/>
		<path fill="#948994" d="M-4.075,63.541c2.872,0.117,5.742,0.197,8.629,0.244C3.85,111.243,5.208,158.719,5.526,206.17
			c-0.21,8.682,0.138,17.341,1.218,25.958c0.641,7.473-0.009,14.976-0.284,22.456c-1.027,41.401-1.982,82.818-4.267,124.156
			c-2.281-36.348-4.472-72.753-5.373-109.167c2.014-23.458,0.583-46.993,0.66-70.486C-3.139,153.918-2.862,108.704-4.075,63.541z"/>
	</g>
</g>
</svg>
